<?xml version="1.0" standalone="no"?><!DOCTYPE svg PUBLIC "-//W3C//DTD SVG 1.1//EN" "http://www.w3.org/Graphics/SVG/1.1/DTD/svg11.dtd"><svg t="1532331930320" class="icon" style="" viewBox="0 0 1025 1024" version="1.1" xmlns="http://www.w3.org/2000/svg" p-id="2566" xmlns:xlink="http://www.w3.org/1999/xlink" width="16.015625" height="16"><defs><style type="text/css"></style></defs><path d="M938.205184 0 85.794816 0C38.58315 0 0.176713 38.408777 0.176713 85.620443 0.176713 108.1344 8.867255 129.218267 24.725797 145.352997 25.198592 146.230711 25.802459 147.044059 26.519845 147.763785L326.109477 447.376823 326.109477 602.683099 326.107136 602.683099 326.107136 629.539986 326.114158 629.539986C326.114158 629.63712 326.107136 629.733083 326.107136 629.830217 326.107136 649.414949 341.983232 665.291045 361.567963 665.291045 381.152695 665.291045 397.028791 649.414949 397.028791 629.830217 397.028791 629.733083 397.021769 629.63712 397.021769 629.539986L397.028791 629.539986 397.028791 628.411831C397.033472 628.290121 397.047515 628.168411 397.047515 628.045531L397.047515 422.299941C397.047515 419.543918 395.952128 416.900242 394.002432 414.950546L78.183278 99.151287C77.639095 98.287616 76.957989 97.496503 76.156343 96.809545 74.122386 95.06816 70.707493 91.29984 70.707493 85.620443 70.707493 77.300882 77.475255 70.53312 85.795986 70.53312L938.207525 70.53312C946.511872 70.53312 953.267931 77.300882 953.267931 85.620443 953.267931 91.319735 949.871762 95.077522 947.843657 96.810715 947.020946 97.514057 946.330478 98.326235 945.779273 99.210971L630.020974 414.928311C628.068937 416.879177 626.97355 419.525193 626.97589 422.282386 626.97589 425.101605 627.105792 706.772992 627.105792 938.360832 627.105792 946.66635 620.290048 953.423579 611.910802 953.423579 606.155337 953.423579 602.337865 950.000494 600.575415 947.959515 599.86037 947.130953 599.032978 946.435803 598.131858 945.884599L516.772425 865.6896C512.705682 861.681371 506.166126 861.703607 502.12981 865.738752L466.577701 901.265115C464.618642 903.223003 463.522085 905.881893 463.530277 908.651959 463.539639 911.422025 464.654921 914.072722 466.626853 916.017737L549.501806 997.725915C550.226213 998.443301 551.048923 999.042487 551.936 999.510601 568.15499 1015.329353 589.320777 1023.99883 611.908462 1023.99883 659.328439 1023.99883 697.908078 985.590053 697.908078 938.379557L697.908078 447.376823 997.496539 147.762615C998.227968 147.031186 998.837687 146.202624 999.316334 145.307355 1015.146789 129.179648 1023.823287 108.112165 1023.823287 85.620443 1023.826798 38.409947 985.41685 0 938.205184 0L938.205184 0Z" p-id="2567"></path><path d="M361.567963 716.997778C339.14997 716.997778 320.912238 735.235511 320.912238 757.654674 320.912238 780.073838 339.14997 798.312741 361.567963 798.312741 383.985957 798.312741 402.223689 780.073838 402.223689 757.654674 402.223689 735.235511 383.985957 716.997778 361.567963 716.997778L361.567963 716.997778Z" p-id="2568"></path></svg>